<svg xmlns="http://www.w3.org/2000/svg" viewBox="0 0 18.1677 18.1665" fill="none" aria-hidden="true">
  <path
    fill-rule="evenodd"
    clip-rule="evenodd"
    d="M9.08447 0C11.592 0.00027523 13.8639 1.01731 15.5066 2.65991C17.1494 4.30276 18.1676 6.5754 18.1677 9.08325C18.1676 11.5909 17.1491 13.8626 15.5066 15.5054C13.8639 17.1481 11.5921 18.1662 9.08447 18.1665C6.57644 18.1665 4.30408 17.1483 2.66113 15.5054C1.0184 13.8625 0.000110262 11.5911 0 9.08325C0.000123728 6.57537 1.0183 4.30277 2.66113 2.65991C4.30405 1.0173 6.57668 0 9.08447 0ZM13.313 6.02539C13.0332 5.95379 12.7954 6.01593 12.6001 6.21094L7.9895 10.802L6.05591 8.86841C5.89966 8.72507 5.72047 8.65356 5.5188 8.65356C5.31716 8.65358 5.14144 8.72861 4.99146 8.87817C4.84176 9.02755 4.76658 9.19946 4.76685 9.39453C4.76726 9.58995 4.83877 9.76685 4.98169 9.9231L7.46216 12.4036C7.60549 12.5469 7.78239 12.6184 7.99072 12.6184C8.1988 12.6183 8.37487 12.5468 8.51807 12.4036L13.6548 7.26685C13.8502 7.07143 13.912 6.83273 13.8403 6.55273C13.7686 6.27307 13.5927 6.09706 13.313 6.02539Z"
    fill="currentColor"
  />
</svg>
