<svg preserveAspectRatio="none" width="100%" height="100%" overflow="visible" style="display: block;" viewBox="0 0 14.4 14.4" fill="none" xmlns="http://www.w3.org/2000/svg">
<g id="Frame">
<path id="Vector" d="M7.13779 13.3552C6.0403 13.3552 5.03284 12.9879 4.38424 12.4392C4.05481 12.5377 3.63343 12.696 3.3676 12.8924C3.1399 13.0604 3.16837 13.2316 3.20935 13.3007C3.38938 13.6046 6.29812 13.4948 7.13779 13.4002V13.3552ZM7.13779 13.3552C8.23546 13.3552 9.24283 12.9879 9.89152 12.4392C10.2208 12.5377 10.6422 12.696 10.9082 12.8924C11.1357 13.0604 11.1073 13.2316 11.0662 13.3007C10.8862 13.6046 7.97755 13.4948 7.13779 13.4002V13.3552Z" fill="currentColor"/>
<path id="Vector_2" fill-rule="evenodd" clip-rule="evenodd" d="M10.9016 6.2794C10.4094 6.41389 8.95679 6.76477 7.14431 6.77704H7.13093C5.27258 6.76435 3.79268 6.39604 3.33821 6.26959C3.24479 6.24349 3.19373 6.18964 3.19373 6.18964C3.19319 6.17317 3.1862 5.89471 3.1862 5.75092C3.1862 3.33127 4.32851 0.89971 7.13765 0.899623C9.94682 0.89971 11.089 3.33118 11.089 5.75101C11.089 5.89462 11.0821 6.17317 11.0816 6.18973C11.0816 6.18973 11.0189 6.24727 10.9016 6.2794ZM11.6485 7.60474C11.8039 8.00965 11.9572 8.43127 12.0695 8.79283C12.6053 10.517 12.4316 11.2305 12.2996 11.2466C12.016 11.2808 11.1956 9.94864 11.1956 9.94864C11.1956 11.3023 9.97343 13.3808 7.17479 13.3999H7.10054C4.30181 13.3808 3.07964 11.3023 3.07964 9.94864C3.07964 9.94864 2.25938 11.2808 1.97575 11.2465C1.84362 11.2305 1.66997 10.5171 2.20579 8.79283C2.31814 8.43136 2.47147 8.00965 2.62682 7.60474C2.62682 7.60474 2.73155 7.59817 2.78461 7.61347C3.21956 7.73902 3.68285 7.85029 4.1534 7.94338C4.07327 8.43991 4.02746 9.05443 4.07075 9.78025C4.18598 11.7105 5.33234 12.9239 7.1018 12.9414H7.17362C8.94317 12.9239 10.0894 11.7105 10.2048 9.78025C10.2481 9.05431 10.2022 8.43997 10.1221 7.94341C10.6009 7.84861 11.0723 7.73506 11.5139 7.60675C11.5592 7.5937 11.6485 7.60474 11.6485 7.60474ZM10.1221 7.94341C9.09011 8.14765 8.02343 8.26468 7.14431 8.25403H7.13093C6.25187 8.26456 5.18522 8.14756 4.1534 7.94338C4.15757 7.91749 4.16183 7.8919 4.16621 7.86664C5.19407 8.06929 6.25538 8.18521 7.13069 8.17471H7.1441C8.01959 8.18539 9.08126 8.06929 10.1092 7.86655C10.1136 7.89184 10.1179 7.91746 10.1221 7.94341ZM5.41127 3.50566C5.43176 4.0576 5.75735 4.49167 6.13844 4.47442C6.51926 4.45744 6.81131 3.99586 6.79046 3.44368C6.76979 2.89156 6.44432 2.45767 6.06365 2.47474C5.68256 2.492 5.3906 2.95356 5.41127 3.50566ZM8.13758 4.47442C8.5187 4.49167 8.84426 4.05751 8.86466 3.50566C8.88542 2.95356 8.59346 2.492 8.21237 2.47474C7.83164 2.45776 7.50623 2.89165 7.48556 3.44377C7.46474 3.99586 7.75667 4.45735 8.13758 4.47442ZM7.14443 4.77706C8.41406 4.77706 9.43973 5.02837 9.54149 5.25385C9.54629 5.26384 9.54884 5.27485 9.54893 5.28592C9.54881 5.30155 9.54392 5.31676 9.53492 5.32951C9.44909 5.45467 8.31029 6.0727 7.14443 6.0727H7.13075C5.9648 6.0727 4.826 5.45449 4.74017 5.32951C4.73123 5.31679 4.72634 5.30164 4.72616 5.2861C4.72625 5.27497 4.7288 5.26399 4.7336 5.25394C4.83545 5.02837 5.86103 4.77706 7.13075 4.77706H7.14443Z" fill="currentColor"/>
<path id="Vector_3" d="M6.60653 3.51389C6.62396 3.73193 6.50435 3.92564 6.3398 3.94673C6.17492 3.96794 6.02735 3.80837 6.00986 3.59033C5.99261 3.37211 6.11204 3.17843 6.27632 3.1574C6.44147 3.13604 6.58928 3.29585 6.60653 3.51389ZM7.6535 3.58676C7.68719 3.5264 7.91654 3.20915 8.39141 3.32465C8.51621 3.35504 8.5739 3.39971 8.58608 3.41723C8.60402 3.44315 8.60903 3.48008 8.59073 3.52982C8.55464 3.62843 8.48012 3.62573 8.43887 3.60644C8.41217 3.59402 8.08142 3.37352 7.77668 3.7025C7.75568 3.72503 7.71821 3.7328 7.68272 3.70601C7.64708 3.67904 7.63247 3.62459 7.6535 3.58676Z" fill="currentColor"/>
<path id="Vector_4" d="M4.65118 8.01332V9.91292C4.65118 9.91292 5.52133 10.0884 6.39316 9.96686V8.21471C5.84086 8.18345 5.24524 8.11385 4.65118 8.01332Z" fill="currentColor"/>
<path id="Vector_5" d="M11.0816 6.1898C11.0816 6.1898 9.38887 6.72413 7.14427 6.73928H7.13086C4.88995 6.72422 3.19945 6.19154 3.19369 6.1898L2.62677 7.60469C4.04473 8.03219 5.80204 8.30768 7.13086 8.29166H7.14427C8.47309 8.30768 10.2303 8.03219 11.6485 7.60469L11.0816 6.1898Z" fill="currentColor"/>
</g>
</svg>
