<svg preserveAspectRatio="none" width="100%" height="100%" overflow="visible" style="display: block;" viewBox="0 0 14.4002 14.4" fill="none" xmlns="http://www.w3.org/2000/svg">
<g id="Frame 2147231011">
<path id="Vector" d="M13.173 1.30646C13.173 1.30646 14.5047 0.78667 14.3936 2.04842C14.3573 2.56753 14.024 4.38541 13.7648 6.35211L12.8768 12.1774C12.8768 12.1774 12.8027 13.0305 12.1362 13.1786C11.471 13.3274 10.4719 12.6595 10.2867 12.5114C10.1386 12.4003 7.51156 10.7305 6.58582 9.91382C6.3273 9.69164 6.03106 9.24591 6.62353 8.72681L10.5089 5.01698C10.9526 4.57125 11.3969 3.53236 9.54683 4.79411L4.36609 8.3188C4.36609 8.3188 3.77361 8.68909 2.66409 8.35583L0.25853 7.61386C0.25853 7.61386 -0.629499 7.05704 0.88735 6.50091C4.58827 4.75571 9.1395 2.97623 13.173 1.30577V1.30646Z" fill="currentColor"/>
</g>
</svg>
