<svg preserveAspectRatio="none" width="100%" height="100%" overflow="visible" style="display: block;" viewBox="0 0 14.4 14.4" fill="none" xmlns="http://www.w3.org/2000/svg">
<g id="Frame" clip-path="url(#clip0_0_4)">
<path id="Vector" d="M9.74703 4.88336C9.91263 4.88336 10.0755 4.89596 10.2393 4.91396C9.79833 2.86016 7.60323 1.33466 5.09673 1.33466C2.29503 1.33466 2.59053e-05 3.24356 2.59053e-05 5.66906C2.59053e-05 7.06856 0.763226 8.21786 2.03943 9.11066L1.53003 10.6434L3.31203 9.75056C3.94923 9.87566 4.46043 10.0053 5.09673 10.0053C5.25693 10.0053 5.41533 9.99806 5.57193 9.98636C5.47293 9.64526 5.41443 9.28886 5.41443 8.91716C5.41533 6.69056 7.32693 4.88336 9.74703 4.88336ZM7.00743 3.50186C7.39263 3.50186 7.64553 3.75476 7.64553 4.13816C7.64553 4.51976 7.39263 4.77536 7.00743 4.77536C6.62673 4.77536 6.24333 4.51976 6.24333 4.13816C6.24333 3.75386 6.62583 3.50186 7.00743 3.50186ZM3.44073 4.77536C3.05823 4.77536 2.67303 4.51976 2.67303 4.13816C2.67303 3.75476 3.05823 3.50186 3.44073 3.50186C3.82323 3.50186 4.07703 3.75386 4.07703 4.13816C4.07703 4.51976 3.82323 4.77536 3.44073 4.77536ZM14.4 8.85596C14.4 6.81836 12.3606 5.15786 10.0701 5.15786C7.64463 5.15786 5.73573 6.81926 5.73573 8.85596C5.73573 10.899 7.64553 12.5541 10.0701 12.5541C10.5777 12.5541 11.0898 12.4272 11.5992 12.2994L12.9969 13.0662L12.6135 11.7918C13.6368 11.0232 14.4 10.0053 14.4 8.85596ZM8.66433 8.21786C8.41143 8.21786 8.15493 7.96586 8.15493 7.70846C8.15493 7.45466 8.41143 7.19906 8.66433 7.19906C9.05133 7.19906 9.30243 7.45466 9.30243 7.70846C9.30243 7.96586 9.05133 8.21786 8.66433 8.21786ZM11.4678 8.21786C11.2167 8.21786 10.9611 7.96586 10.9611 7.70846C10.9611 7.45466 11.2158 7.19906 11.4678 7.19906C11.8512 7.19906 12.1059 7.45466 12.1059 7.70846C12.1059 7.96586 11.8512 8.21786 11.4678 8.21786Z" fill="currentColor"/>
</g>
<defs>
<clipPath id="clip0_0_4">
<rect width="14.4" height="14.4" fill="white"/>
</clipPath>
</defs>
</svg>
